<?xml version="1.0" encoding="utf-8"?>
<!-- Generator: Adobe Illustrator 23.0.3, SVG Export Plug-In . SVG Version: 6.00 Build 0)  -->
<svg version="1.1" xmlns="http://www.w3.org/2000/svg" xmlns:xlink="http://www.w3.org/1999/xlink" x="0px" y="0px"
	 viewBox="0 0 1026.75 649.5" style="enable-background:new 0 0 1026.75 649.5;" xml:space="preserve">
<style type="text/css">
	.st0{fill:#776262;}
</style>
<g id="Layer_1">
	
		<image style="overflow:visible;" width="1367" height="866" xlink:href="switzerland_gotthard_zoomed_citynames_map.PNG"  transform="matrix(0.75 0 0 0.75 0 0)">
	</image>
</g>
<g id="markers">
	<path id="grimsel" class="st0" d="M335.13,313.78c-4.2,0-8,3.4-8,7.6c0,4.2,3.47,9.21,8,16.4c4.53-7.19,8-12.2,8-16.4
		C343.13,317.19,339.33,313.78,335.13,313.78z M335.13,324.78c-1.66,0-3-1.34-3-3c0-1.66,1.34-3,3-3s3,1.34,3,3
		C338.13,323.44,336.79,324.78,335.13,324.78z"/>
	<path id="fuchsegg" class="st0" d="M558.13,269.78c-4.2,0-9.04,3.53-8,7.6c1.87,7.27,6.29,13.86,8,16.4c4.53-7.19,8-12.2,8-16.4
		C566.13,273.18,562.33,269.78,558.13,269.78z M558.72,280.72c-2.11,0.4-3.93-1.42-3.53-3.53c0.22-1.17,1.18-2.13,2.36-2.36
		c2.11-0.4,3.93,1.42,3.53,3.53C560.85,279.54,559.89,280.5,558.72,280.72z"/>
	<path id="sasso-da-pigna" class="st0" d="M665.24,342.78c-4.2,0-8,3.4-8,7.6c0,4.2,3.47,9.21,8,16.4c4.53-7.19,8-12.2,8-16.4
		C673.24,346.19,669.44,342.78,665.24,342.78z M665.24,353.78c-1.66,0-3-1.34-3-3c0-1.66,1.34-3,3-3c1.66,0,3,1.34,3,3
		C668.24,352.44,666.9,353.78,665.24,353.78z"/>
	<path id="san-carlo" class="st0" d="M647.44,335.78c-4.2,0-8,3.4-8,7.6c0,4.2,3.47,9.21,8,16.4c4.53-7.19,8-12.2,8-16.4
		C655.44,339.19,651.64,335.78,647.44,335.78z M647.44,346.78c-1.66,0-3-1.34-3-3c0-1.66,1.34-3,3-3c1.66,0,3,1.34,3,3
		C650.44,345.44,649.1,346.78,647.44,346.78z"/>
	<path id="hospiz" class="st0" d="M675.24,347.78c-4.2,0-8,3.4-8,7.6c0,4.2,3.47,9.21,8,16.4c4.53-7.19,8-12.2,8-16.4
		C683.24,351.19,679.44,347.78,675.24,347.78z M675.24,358.78c-1.66,0-3-1.34-3-3c0-1.66,1.34-3,3-3c1.66,0,3,1.34,3,3
		C678.24,357.44,676.9,358.78,675.24,358.78z"/>
	<path id="foppa-grande" class="st0" d="M689.11,394.78c-4.2,0-8,3.4-8,7.6c0,4.2,3.47,9.21,8,16.4c4.53-7.19,8-12.2,8-16.4
		C697.11,398.19,693.31,394.78,689.11,394.78z M689.11,405.78c-1.66,0-3-1.34-3-3c0-1.66,1.34-3,3-3s3,1.34,3,3
		C692.11,404.44,690.77,405.78,689.11,405.78z"/>
	<path id="motto-bartola" class="st0" d="M701.24,394.78c-4.2,0-8,3.4-8,7.6c0,4.2,3.47,9.21,8,16.4c4.53-7.19,8-12.2,8-16.4
		C709.24,398.19,705.44,394.78,701.24,394.78z M701.24,405.78c-1.66,0-3-1.34-3-3c0-1.66,1.34-3,3-3c1.66,0,3,1.34,3,3
		C704.24,404.44,702.9,405.78,701.24,405.78z"/>
	<path id="forte-airolo" class="st0" d="M697.11,406.78c-4.2,0-8,3.4-8,7.6c0,4.2,3.47,9.21,8,16.4c4.53-7.19,8-12.2,8-16.4
		C705.11,410.19,701.31,406.78,697.11,406.78z M697.11,417.78c-1.66,0-3-1.34-3-3c0-1.66,1.34-3,3-3s3,1.34,3,3
		C700.11,416.44,698.77,417.78,697.11,417.78z"/>
	<path id="grandinagia" class="st0" d="M530.49,523.97c-4.2,0-8,3.4-8,7.6c0,4.2,3.47,9.21,8,16.4c4.53-7.19,8-12.2,8-16.4
		C538.49,527.37,534.69,523.97,530.49,523.97z M531.08,534.92c-2.11,0.4-3.93-1.42-3.53-3.53c0.22-1.17,1.18-2.13,2.36-2.36
		c2.11-0.4,3.93,1.42,3.53,3.53C533.22,533.73,532.25,534.69,531.08,534.92z"/>
	<path id="guetsch" class="st0" d="M709.24,183.31c-4.2,0-8,3.4-8,7.6c0,4.2,3.47,9.21,8,16.4c4.53-7.19,8-12.2,8-16.4
		C717.24,186.72,713.44,183.31,709.24,183.31z M709.24,194.31c-1.66,0-3-1.34-3-3s1.34-3,3-3c1.66,0,3,1.34,3,3
		S710.9,194.31,709.24,194.31z"/>
</g>
</svg>
