<?xml version="1.0" encoding="utf-8"?>
<!-- Generator: Adobe Illustrator 23.0.3, SVG Export Plug-In . SVG Version: 6.00 Build 0)  -->
<svg version="1.1" xmlns="http://www.w3.org/2000/svg" xmlns:xlink="http://www.w3.org/1999/xlink" x="0px" y="0px"
	 viewBox="0 0 1026.75 662.25" style="enable-background:new 0 0 1026.75 662.25;" xml:space="preserve">
<style type="text/css">
	.st0{fill:#776262;}
</style>
<g id="Layer_1">
	
		<image style="overflow:visible;" width="1369" height="883" xlink:href="switzerland_saint-maurice_map.PNG"  transform="matrix(0.75 0 0 0.75 0 0)">
	</image>
</g>
<g id="markers">
	<path id="cindey" class="st0" d="M436.9,230.27c-4.2,0-8,3.4-8,7.6c0,4.2,3.47,9.21,8,16.4c4.53-7.19,8-12.2,8-16.4
		C444.9,233.67,441.09,230.27,436.9,230.27z M436.9,241.27c-1.66,0-3-1.34-3-3s1.34-3,3-3c1.66,0,3,1.34,3,3
		S438.55,241.27,436.9,241.27z"/>
	<path id="scex" class="st0" d="M401.23,319.13c-4.2,0-8,3.4-8,7.6c0,4.2,3.47,9.21,8,16.4c4.53-7.19,8-12.2,8-16.4
		C409.23,322.53,405.43,319.13,401.23,319.13z M401.23,330.13c-1.66,0-3-1.34-3-3s1.34-3,3-3c1.66,0,3,1.34,3,3
		S402.89,330.13,401.23,330.13z"/>
	<path id="dailly" class="st0" d="M607.53,375.72c-4.2,0-8,3.4-8,7.6c0,4.2,3.47,9.21,8,16.4c4.53-7.19,8-12.2,8-16.4
		C615.53,379.12,611.72,375.72,607.53,375.72z M607.53,386.72c-1.66,0-3-1.34-3-3c0-1.66,1.34-3,3-3c1.66,0,3,1.34,3,3
		C610.53,385.38,609.18,386.72,607.53,386.72z"/>
</g>
</svg>
