<?xml version="1.0" encoding="utf-8"?>
<!-- Generator: Adobe Illustrator 23.0.3, SVG Export Plug-In . SVG Version: 6.00 Build 0)  -->
<svg version="1.1" xmlns="http://www.w3.org/2000/svg" xmlns:xlink="http://www.w3.org/1999/xlink" x="0px" y="0px"
	 viewBox="0 0 1026.75 648.75" style="enable-background:new 0 0 1026.75 648.75;" xml:space="preserve">
<style type="text/css">
	.st0{fill:#776262;}
</style>
<g id="Layer_1">
	
		<image style="overflow:visible;" width="1369" height="865" xlink:href="switzerland_sargans_citynames_map.PNG"  transform="matrix(0.75 0 0 0.75 0 0)">
	</image>
</g>
<g id="markers">
	<path id="magletsch" class="st0" d="M410.12,205.38c-4.2,0-8,3.4-8,7.6c0,4.2,3.47,9.21,8,16.4c4.53-7.19,8-12.2,8-16.4
		C418.12,208.78,414.32,205.38,410.12,205.38z M410.12,216.38c-1.66,0-3-1.34-3-3s1.34-3,3-3c1.66,0,3,1.34,3,3
		S411.78,216.38,410.12,216.38z"/>
	<path id="schollberg" class="st0" d="M389.26,306.38c-4.2,0-8,3.4-8,7.6c0,4.2,3.47,9.21,8,16.4c4.53-7.19,8-12.2,8-16.4
		C397.26,309.78,393.46,306.38,389.26,306.38z M389.26,317.38c-1.66,0-3-1.34-3-3c0-1.66,1.34-3,3-3c1.66,0,3,1.34,3,3
		C392.26,316.04,390.92,317.38,389.26,317.38z"/>
	<path id="passati" class="st0" d="M303.46,340.19c-4.2,0-8,3.4-8,7.6c0,4.2,3.47,9.21,8,16.4c4.53-7.19,8-12.2,8-16.4
		C311.46,343.59,307.66,340.19,303.46,340.19z M303.46,351.19c-1.66,0-3-1.34-3-3s1.34-3,3-3c1.66,0,3,1.34,3,3
		S305.12,351.19,303.46,351.19z"/>
	<path id="tschingel" class="st0" d="M415.12,375.87c-4.2,0-8,3.4-8,7.6c0,4.2,3.47,9.21,8,16.4c4.53-7.19,8-12.2,8-16.4
		C423.12,379.28,419.32,375.87,415.12,375.87z M415.12,386.87c-1.66,0-3-1.34-3-3c0-1.66,1.34-3,3-3c1.66,0,3,1.34,3,3
		C418.12,385.53,416.78,386.87,415.12,386.87z"/>
	<path id="st-luzisteig" class="st0" d="M490.66,387.87c-4.2,0-8,3.4-8,7.6c0,4.2,3.47,9.21,8,16.4c4.53-7.19,8-12.2,8-16.4
		C498.66,391.28,494.86,387.87,490.66,387.87z M490.66,398.87c-1.66,0-3-1.34-3-3c0-1.66,1.34-3,3-3c1.66,0,3,1.34,3,3
		C493.66,397.53,492.32,398.87,490.66,398.87z"/>
	<path id="furggels" class="st0" d="M444.59,541.87c-4.2,0-8,3.4-8,7.6c0,4.2,3.47,9.21,8,16.4c4.53-7.19,8-12.2,8-16.4
		C452.59,545.28,448.79,541.87,444.59,541.87z M444.59,552.87c-1.66,0-3-1.34-3-3c0-1.66,1.34-3,3-3c1.66,0,3,1.34,3,3
		C447.59,551.53,446.25,552.87,444.59,552.87z"/>
	<path id="castels" class="st0" d="M271.46,353.98c-4.2,0-8,3.4-8,7.6c0,4.2,3.47,9.21,8,16.4c4.53-7.19,8-12.2,8-16.4
		C279.46,357.39,275.66,353.98,271.46,353.98z M271.46,364.98c-1.66,0-3-1.34-3-3c0-1.66,1.34-3,3-3c1.66,0,3,1.34,3,3
		C274.46,363.64,273.12,364.98,271.46,364.98z"/>
</g>
</svg>
