<?xml version="1.0" encoding="utf-8"?>
<!-- Generator: Adobe Illustrator 23.0.3, SVG Export Plug-In . SVG Version: 6.00 Build 0)  -->
<svg version="1.1" id="Layer_1" xmlns="http://www.w3.org/2000/svg" xmlns:xlink="http://www.w3.org/1999/xlink" x="0px" y="0px"
	 viewBox="0 0 358.4 445.9" style="enable-background:new 0 0 358.4 445.9;" xml:space="preserve">
<style type="text/css">
	.st0{fill:none;}
	.st1{fill:#383838;}
	.st2{font-family:'Montserrat-Bold';}
	.st3{font-size:22.3798px;}
</style>
<g id="Path_1">
	<path class="st0" d="M172.8,191l4.9-4.9l2.4,2.4l4.8-4.8l105.8,105.7c4.4,4.4,9.7,7.5,9.7,25.5c0,21.3-2.6,126-2.6,126h13v-51.4
		h-6.9c0,0,2.3-69,2.3-81c0-11.8-7.6-18.3-12.6-23.3l-35.5-35.5l6.5-6.5l-4.3-4.3l18.1-18.1l1.8,1.8l1.6-1.6l23.8,23.8l8.7-8.7
		l-24-24.1l1.9-1.9l-1.4-1.4l11.1-11.1l2.1,2.1l3.7-3.7l29.4,29.4l14.4-14.4l-66.3-66.2l-14.7,14.7l31.2,31.2l-14.8,14.8l-32.9-32.9
		l-11,11l32.4,32.4L256,235.5l-3.4-3.4l-5.9,5.9l-61.3-61.2l88.4-88.4L263,77.6l-88.8,88.8l-56.7-56.7L207.4,20l-13-13L89.8,111.7
		c-5.4,5.4-12.7,5.8-18.6,5.8s-16.5-1.2-26.8,9.1l-7.6,7.6l-5.4-5.4l-8.8,8.9l-2.7-2.7l-3.5,3.5h-1.9l-9.3,9.3l0.4,3.1l8.1,8
		l3.9,0.1l13.1-13.1l2.7,2.6l8.8-8.9l-1.8-1.8c10.7-10.7,14.2-14.9,27.4-14.9c10.4,0,16.5,2.1,28.2-9.6l8.8,8.8l8.5-8.6l20.1,20.1
		l-6.5,6.5l3.9,3.9l-51.2,51.7l-4-4L61.3,206l4.8,4.9l4.7-4.8l2.1,2l61.3-61l4,4l6.4-6.5l24.5,24.5l-7.4,7.4l9.4,9.4l-1.7,1.7
		c-8.4,8.4-9.3,12.8-9.2,27.2c0.2,16.3,4.4,16.8-11.9,33.1l-7.1-7.1l-8,8l-1.1-1.1L117.9,262v2.3l8.4,8.5h2.9l13.5-13.5l3.1,3.1
		l1.6-1.6l-7.3,26.7l5.6,1.4l9.3-35.1l-2.6-2.6c0,0,2-2,4.9-4.9c8.1-8,9.1-12.2,8.6-28.5c0-0.7,0-1.5-0.1-2.2
		C165.4,212,164,199.9,172.8,191z"/>
	<path class="st1" d="M140.1,287.5l5.6,1.4l9.3-35.1l-2.6-2.6c0,0,2-2,4.9-4.9c8.1-8,9.1-12.2,8.6-28.5c0-0.7,0-1.5-0.1-2.2
		c-0.4-3.5-1.8-15.6,7-24.6l4.9-4.9l2.4,2.4l4.8-4.8l105.8,105.7c0.9,0.9,1.8,1.7,2.6,2.5c3.6,3.6,7.1,8.5,7.1,23
		c0,21.3-2.6,126-2.6,126h13v-51.4h-6.9c0,0,2.3-69,2.3-81c0-10-5.4-16.1-10-20.8c-0.9-0.9-1.7-1.7-2.5-2.5l-35.5-35.5l6.5-6.5
		l-4.3-4.3l18.1-18.1l1.8,1.7l1.6-1.6l23.8,23.8l8.7-8.7l-24-24.1l1.9-1.9l-1.4-1.4l11.2-11.1l2.1,2.1l3.7-3.7l29.4,29.4l14.4-14.4
		l-66.3-66.2l-14.7,14.7l31.2,31.2l-14.8,14.8l-32.9-32.9l-11,11l32.4,32.4L256,235.5l-3.4-3.4l-5.9,5.9l-61.3-61.2l88.4-88.4
		L263,77.6l-88.8,88.8l-56.7-56.7L207.4,20l-13-13l-89.8,89.8l-14.8,14.9c-5.4,5.4-12.7,5.8-18.6,5.8s-16.5-1.2-26.8,9.1l-7.6,7.6
		l0,0l0,0l-5.4-5.4l-8.8,8.9l-2.7-2.7l-3.5,3.5h-1.9l-9.3,9.3l0.4,3.1l8.1,8l3.9,0.1l13.1-13.1l2.6,2.6l8.8-8.9l-1.8-1.8
		c10.7-10.7,14.2-14.9,27.4-14.9c10.4,0,16.5,2.1,28.2-9.6l8.8,8.8l8.5-8.6l20.1,20.1l-6.5,6.5l3.9,3.9l-51.2,51.7l-4-4L61.3,206
		l4.8,4.9l4.7-4.8l2.1,2l61.3-61l4,4l6.4-6.5l24.5,24.5l-7.4,7.4l9.4,9.4l-1.7,1.7c-8.4,8.4-9.3,12.8-9.2,27.2
		c0.2,16.3,4.4,16.8-11.9,33.1l-7.1-7.1l-8,8l-1.1-1.1L117.9,262v2.3l8.4,8.5h2.9l13.5-13.5l3.1,3.1l1.6-1.6L140.1,287.5 M133.9,291
		l1.3-4.9l4.6-17l-7.2,7.2l-1.5,1.5h-7l-1.5-1.5l-8.4-8.5l-1.4-1.5V260l1.5-1.5l14.2-14.3l3.5-3.5l1.1,1.1l4.5-4.5l3.5-3.5l3.5,3.5
		l3.5,3.5c3.8-4,5.8-6.8,6.8-9s0.9-4.2,0.6-8.7c-0.2-2.2-0.4-4.9-0.4-8.2c-0.1-7.8,0.1-12.9,1.6-17.4c0.8-2.5,2-4.8,3.4-6.9
		c1.1-1.6,2.4-3.2,3.8-4.6l-5.9-5.9l-3.5-3.5l3.5-3.5l3.8-3.8l-17.4-17.4l-2.9,2.9l-3.5,3.6l-3.6-3.5l-0.5-0.5l-57.8,57.5l-3.5,3.4
		l-2.1-2l-1.2,1.2L66,218l-3.6-3.6l-4.8-4.9l-3.5-3.6l3.5-3.5l14.5-14.3l3.5-3.5l3.5,3.5l0.5,0.5l44.2-44.6l-0.4-0.3l-3.6-3.5
		l3.6-3.6l3-3l-13-13l-5,5.1l-3.5,3.6l-3.6-3.6l-5.4-5.4c-3.2,2.9-7,5.1-11.1,6.5c-4.6,1.4-8.6,1.3-13,1.2c-1.3,0-2.6-0.1-3.9-0.1
		c-9.7,0-12.6,2.2-20.4,9.9l1.8,1.8l-3.5,3.5l-8.8,8.8l-3.6,3.5l-2.7-2.6l-9.6,9.6l-1.5,1.5l-2.1-0.1l-3.9-0.1h-2l-1.4-1.4l-8.1-8
		l-1.2-1.2l-0.2-1.7l-0.4-3.1L0,145.9l1.7-1.7l9.3-9.3l1.5-1.5h2l2-2l3.5-3.5l2.7,2.7l5.3-5.3l3.5-3.5l3.5,3.5l1.9,1.9l4.1-4.1
		c2.4-2.4,5.1-4.5,8.1-6.2c2.5-1.4,5.2-2.5,8-3.2c4.1-1,8.4-1.4,12.6-1.1h1.6c5.1,0,11-0.3,15-4.4l14.8-14.8l89.7-89.9l3.5-3.5
		l3.5,3.5l13,13l3.5,3.5l-3.5,3.5l-86.3,86.2l49.6,49.6l85.3-85.3l3.5-3.5l3.5,3.5l10.8,10.8l3.5,3.5l-3.5,3.5l-84.8,84.8l54.2,54.2
		l2.4-2.4l3.5-3.5l3.4,3.4l12.3-12.3l-28.9-28.9l-3.5-3.5l3.5-3.5l11-11l3.5-3.5l3.5,3.5l29.4,29.4l7.7-7.7l-27.7-27.7l-3.5-3.5
		l3.5-3.5l14.7-14.7l3.5-3.5l3.5,3.5l66.2,66.2l3.5,3.5l-3.5,3.6l-14.4,14.4l-3.5,3.5l-3.5-3.6l-25.9-25.9l-0.1,0.1l-3.5,3.5
		l-2.1-2.2l-4.1,4.1l1.4,1.4l-1.9,1.9l20.5,20.5l3.5,3.5l-3.5,3.6l-8.7,8.7l-3.5,3.5l-3.5-3.5l-20.2-20.2l-1.6,1.6l-1.8-1.8
		l-11,11.1l0.8,0.8l3.5,3.5l-3.5,3.5l-3,2.9l32,31.9c0.4,0.4,0.8,0.8,1.1,1.1l1.4,1.3c2.9,2.8,5.5,6,7.5,9.5
		c1.2,2.1,2.2,4.4,2.8,6.7c0.7,2.7,1.1,5.4,1.1,8.1c0,10.2-1.6,59.7-2.1,76h6.8v61.4h-23.1l0.1-5.1c0-1,2.6-104.9,2.6-125.9
		c0-6-0.6-10.5-1.9-13.8c-0.8-2.1-2.1-4.1-3.8-5.6c-0.4-0.4-0.8-0.8-1.2-1.2s-0.9-0.9-1.4-1.3L184.8,190.8l-1.2,1.2l-3.5,3.5
		l-2.4-2.4l-1.4,1.4c-3,3.1-4.9,7-5.5,11.3c-0.4,3-0.5,6-0.1,9v0.3c0.1,0.7,0.1,1.4,0.1,2c0,0.2,0,0.3,0,0.5
		c0.3,8.6,0.2,14.1-1.2,18.9c-1.6,5.4-4.7,9.2-8.9,13.3l-1.3,1.4l1.1,1.1l-0.7,2.8l-9.3,35.1l-1.3,4.8l-4.8-1.3l-5.6-1.5L133.9,291z
		"/>
</g>
<g>
	<title>Wachposten</title>
	<circle cx="59.7" cy="195.5" r="9.5"/>
</g>
<g>
	<title>Schiessstand 2</title>
	<circle cx="14.1" cy="132.9" r="9.5"/>
</g>
<g>
	<title>Munitionslager 1</title>
	<circle cx="197.5" cy="175.4" r="9.5"/>
</g>
<g>
	<title>Treppe zum Wachposten</title>
	<circle cx="112.1" cy="166.7" r="9.5"/>
</g>
<g>
	<title>Munitionslager 2</title>
	<circle cx="130.1" cy="108.1" r="9.5"/>
</g>
<g>
	<title>Festungsgang</title>
	<circle cx="228.1" cy="230.4" r="9.5"/>
</g>
<g>
	<title>Waffenlager</title>
	<circle cx="272.5" cy="246.6" r="9.5"/>
</g>
<g>
	<title>Gedenkstätte</title>
	<circle cx="313.4" cy="297.1" r="9.5"/>
</g>
<g>
	<title>Eingangsbereich</title>
	<circle cx="314.1" cy="387.7" r="9.5"/>
</g>
<g>
	<title>Heizungsraum</title>
	<circle cx="304.4" cy="221.4" r="9.5"/>
</g>
<g>
	<title>Werkstatt</title>
	<circle cx="268.6" cy="206.9" r="9.5"/>
</g>
<g>
	<title>Stromgeneratoren-Raum</title>
	<ellipse transform="matrix(0.1602 -0.9871 0.9871 0.1602 40.3069 397.9151)" cx="254" cy="175.3" rx="9.5" ry="9.5"/>
</g>
<g>
	<title>Unterkunftstrakt</title>
	<circle cx="319.4" cy="179.2" r="9.6"/>
</g>
<polygon class="st1" points="54.6,385.1 65.4,370 52.2,317.9 "/>
<polygon class="st1" points="81.9,378.3 65.2,370.2 52,318.1 "/>
<text transform="matrix(1 0 0 1 60.8941 404.9506)" class="st1 st2 st3">N</text>
</svg>
